<svg width="22" height="18" viewBox="0 0 22 18" fill="none" xmlns="http://www.w3.org/2000/svg">
<path fill-rule="evenodd" clip-rule="evenodd" d="M9.45122 1.05442C10.1073 -0.0882927 11.8923 -0.0882865 12.5484 1.05442L20.8921 15.5863C21.5054 16.6545 20.6604 17.9376 19.3435 17.9376H2.65619C1.33929 17.9376 0.494249 16.6545 1.10759 15.5863L9.45122 1.05442Z" fill="#FB0C0C"/>
<path d="M12 13.8125C12 14.3188 11.5523 14.7292 11 14.7292C10.4477 14.7292 10 14.3188 10 13.8125C10 13.3063 10.4477 12.8959 11 12.8959C11.5523 12.8959 12 13.3063 12 13.8125Z" fill="white"/>
<path fill-rule="evenodd" clip-rule="evenodd" d="M11 6.24988C11.5523 6.24988 12 6.66028 12 7.16654V11.0626C12 11.5689 11.5523 11.9793 11 11.9793C10.4477 11.9793 10 11.5689 10 11.0626V7.16654C10 6.66028 10.4477 6.24988 11 6.24988Z" fill="white"/>
</svg>
