<svg width="28" height="32" viewBox="0 0 28 32" fill="none" xmlns="http://www.w3.org/2000/svg">
<path d="M26.2025 19C27.4254 15.6997 27.3317 13.211 27.3317 13.211V3.38773C19.2576 4.35031 14.0226 0.666656 14.0226 0.666656C9.96484 2.92069 5.28812 3.84221 0.666656 3.29832L0.710338 14.0903C1.2875 26.2428 14.0226 31.3333 14.0226 31.3333C15.0447 30.867 15.9883 30.37 16.8596 29.8493" stroke="#03020D" stroke-miterlimit="10" stroke-linecap="round" stroke-linejoin="round"/>
<path d="M18 10.6642C18.0005 11.4554 17.7663 12.229 17.327 12.8872C16.8878 13.5453 16.2632 14.0584 15.5324 14.3615C14.8015 14.6646 13.9972 14.7442 13.2211 14.5901C12.445 14.436 11.7321 14.0553 11.1725 13.496C10.6128 12.9366 10.2316 12.2239 10.077 11.4479C9.92249 10.6719 10.0016 9.86752 10.3043 9.13648C10.607 8.40543 11.1196 7.78059 11.7775 7.34095C12.4353 6.90132 13.2087 6.66666 13.9999 6.66666C15.0604 6.66666 16.0775 7.08775 16.8275 7.83737C17.5776 8.58699 17.9994 9.60378 18 10.6642Z" stroke="#03020D" stroke-miterlimit="10" stroke-linecap="round"/>
<path d="M19.4913 17.9253C18.7386 17.1194 17.7179 16.6667 16.6535 16.6667H11.3466C10.2822 16.6667 9.2614 17.1194 8.50877 17.9253C7.75614 18.7311 7.33334 19.8242 7.33334 20.9638V21.3333" stroke="#03020D" stroke-miterlimit="10" stroke-linecap="round"/>
<path fill-rule="evenodd" clip-rule="evenodd" d="M16.6328 24.6664C16.6328 21.7211 19.0205 19.3333 21.9659 19.3333C24.9113 19.3333 27.299 21.7211 27.299 24.6664C27.299 27.6118 24.9113 29.9996 21.9659 29.9996C19.0205 29.9996 16.6328 27.6118 16.6328 24.6664Z" fill="#FF5416"/>
<path d="M19.5404 24.3712L21.4608 26.2529L24.4454 23.1562" stroke="white" stroke-linecap="round" stroke-linejoin="round"/>
</svg>
