<svg width="24" height="19" viewBox="0 0 24 19" fill="none" xmlns="http://www.w3.org/2000/svg">
<path d="M20.317 1.60653C18.7873 0.892488 17.147 0.366412 15.4319 0.0651067C15.4007 0.0592916 15.3695 0.0738239 15.3534 0.102889C15.1424 0.484606 14.9087 0.982586 14.7451 1.374C12.9004 1.09304 11.0652 1.09304 9.25832 1.374C9.09465 0.973886 8.85248 0.484606 8.64057 0.102889C8.62449 0.0747936 8.59328 0.0602614 8.56205 0.0651067C6.84791 0.365449 5.20756 0.891525 3.67693 1.60653C3.66368 1.61234 3.65233 1.62204 3.64479 1.63463C0.533392 6.36353 -0.31895 10.9762 0.0991801 15.5317C0.101072 15.554 0.11337 15.5753 0.130398 15.5888C2.18321 17.1225 4.17171 18.0536 6.12328 18.6707C6.15451 18.6804 6.18761 18.6688 6.20748 18.6426C6.66913 18.0013 7.08064 17.325 7.43348 16.6139C7.4543 16.5722 7.43442 16.5228 7.39186 16.5063C6.73913 16.2544 6.1176 15.9473 5.51973 15.5985C5.47244 15.5705 5.46865 15.5016 5.51216 15.4687C5.63797 15.3728 5.76382 15.273 5.88396 15.1722C5.90569 15.1538 5.93598 15.1499 5.96153 15.1616C9.88928 16.9859 14.1415 16.9859 18.023 15.1616C18.0485 15.149 18.0788 15.1529 18.1015 15.1713C18.2216 15.272 18.3475 15.3728 18.4742 15.4687C18.5177 15.5016 18.5149 15.5705 18.4676 15.5985C17.8697 15.9541 17.2482 16.2544 16.5945 16.5054C16.552 16.5218 16.533 16.5722 16.5538 16.6139C16.9143 17.324 17.3258 18.0003 17.7789 18.6417C17.7978 18.6688 17.8319 18.6804 17.8631 18.6707C19.8241 18.0536 21.8126 17.1225 23.8654 15.5888C23.8834 15.5753 23.8948 15.5549 23.8967 15.5327C24.3971 10.266 23.0585 5.69117 20.3482 1.63559C20.3416 1.62204 20.3303 1.61234 20.317 1.60653ZM8.02002 12.7579C6.8375 12.7579 5.86313 11.6534 5.86313 10.297C5.86313 8.94065 6.8186 7.83619 8.02002 7.83619C9.23087 7.83619 10.1958 8.95035 10.1769 10.297C10.1769 11.6534 9.22141 12.7579 8.02002 12.7579ZM15.9947 12.7579C14.8123 12.7579 13.8379 11.6534 13.8379 10.297C13.8379 8.94065 14.7933 7.83619 15.9947 7.83619C17.2056 7.83619 18.1705 8.95035 18.1516 10.297C18.1516 11.6534 17.2056 12.7579 15.9947 12.7579Z" fill="#03020D"/>
</svg>
