<svg width="12" height="8" viewBox="0 0 12 8" fill="none" xmlns="http://www.w3.org/2000/svg">
<path fill-rule="evenodd" clip-rule="evenodd" d="M7.47825 6.80437C7.29352 7.00962 7.31016 7.32577 7.51542 7.5105C7.72067 7.69523 8.03682 7.67859 8.22155 7.47333L11.014 4.37062C11.0983 4.28111 11.15 4.16051 11.15 4.02783C11.15 3.89838 11.1008 3.78042 11.0201 3.69162L8.22154 0.582148C8.03682 0.376893 7.72067 0.360254 7.51542 0.544984C7.31016 0.729713 7.29352 1.04586 7.47825 1.25111L9.5273 3.52783L1.31665 3.52783C1.04051 3.52783 0.81665 3.75169 0.81665 4.02783C0.81665 4.30398 1.04051 4.52783 1.31665 4.52783L9.52713 4.52783L7.47825 6.80437Z" fill="#03020D"/>
</svg>
