<svg width="31" height="30" viewBox="0 0 31 30" fill="none" xmlns="http://www.w3.org/2000/svg">
<path d="M1.5 15C1.5 15.2761 1.72386 15.5 2 15.5C2.27614 15.5 2.5 15.2761 2.5 15H1.5ZM3.01215 19.2155C2.76298 19.0965 2.46449 19.202 2.34546 19.4511L0.405747 23.5116C0.286716 23.7608 0.392216 24.0593 0.641387 24.1783C0.890558 24.2973 1.18905 24.1918 1.30808 23.9427L3.03227 20.3334L6.64158 22.0575C6.89075 22.1766 7.18924 22.0711 7.30827 21.8219C7.4273 21.5727 7.3218 21.2742 7.07263 21.1552L3.01215 19.2155ZM29.5 15C29.5 22.4558 23.4558 28.5 16 28.5V29.5C24.0081 29.5 30.5 23.0081 30.5 15H29.5ZM2.5 15C2.5 7.54416 8.54416 1.5 16 1.5V0.5C7.99187 0.5 1.5 6.99187 1.5 15H2.5ZM16 1.5C23.4558 1.5 29.5 7.54416 29.5 15H30.5C30.5 6.99187 24.0081 0.5 16 0.5V1.5ZM16 28.5C10.1228 28.5 5.12155 24.7441 3.26805 19.5L2.32521 19.8333C4.31551 25.4644 9.68583 29.5 16 29.5V28.5Z" fill="#FF5416"/>
<path d="M16 8.33331V15L23 22" stroke="#03020D" stroke-linecap="round" stroke-linejoin="round"/>
</svg>
