<svg width="24" height="24" viewBox="0 0 24 24" fill="none" xmlns="http://www.w3.org/2000/svg">
<path d="M20.317 4.60653C18.7873 3.89249 17.147 3.36641 15.4319 3.06511C15.4007 3.05929 15.3695 3.07382 15.3534 3.10289C15.1424 3.48461 14.9087 3.98259 14.7451 4.374C12.9004 4.09304 11.0652 4.09304 9.25832 4.374C9.09465 3.97389 8.85248 3.48461 8.64057 3.10289C8.62449 3.07479 8.59328 3.06026 8.56205 3.06511C6.84791 3.36545 5.20756 3.89153 3.67693 4.60653C3.66368 4.61234 3.65233 4.62204 3.64479 4.63463C0.533392 9.36353 -0.31895 13.9762 0.0991801 18.5317C0.101072 18.554 0.11337 18.5753 0.130398 18.5888C2.18321 20.1225 4.17171 21.0536 6.12328 21.6707C6.15451 21.6804 6.18761 21.6688 6.20748 21.6426C6.66913 21.0013 7.08064 20.325 7.43348 19.6139C7.4543 19.5722 7.43442 19.5228 7.39186 19.5063C6.73913 19.2544 6.1176 18.9473 5.51973 18.5985C5.47244 18.5705 5.46865 18.5016 5.51216 18.4687C5.63797 18.3728 5.76382 18.273 5.88396 18.1722C5.90569 18.1538 5.93598 18.1499 5.96153 18.1616C9.88928 19.9859 14.1415 19.9859 18.023 18.1616C18.0485 18.149 18.0788 18.1529 18.1015 18.1713C18.2216 18.272 18.3475 18.3728 18.4742 18.4687C18.5177 18.5016 18.5149 18.5705 18.4676 18.5985C17.8697 18.9541 17.2482 19.2544 16.5945 19.5054C16.552 19.5218 16.533 19.5722 16.5538 19.6139C16.9143 20.324 17.3258 21.0003 17.7789 21.6417C17.7978 21.6688 17.8319 21.6804 17.8631 21.6707C19.8241 21.0536 21.8126 20.1225 23.8654 18.5888C23.8834 18.5753 23.8948 18.5549 23.8967 18.5327C24.3971 13.266 23.0585 8.69117 20.3482 4.63559C20.3416 4.62204 20.3303 4.61234 20.317 4.60653ZM8.02002 15.7579C6.8375 15.7579 5.86313 14.6534 5.86313 13.297C5.86313 11.9406 6.8186 10.8362 8.02002 10.8362C9.23087 10.8362 10.1958 11.9503 10.1769 13.297C10.1769 14.6534 9.22141 15.7579 8.02002 15.7579ZM15.9947 15.7579C14.8123 15.7579 13.8379 14.6534 13.8379 13.297C13.8379 11.9406 14.7933 10.8362 15.9947 10.8362C17.2056 10.8362 18.1705 11.9503 18.1516 13.297C18.1516 14.6534 17.2056 15.7579 15.9947 15.7579Z" fill="#5B64EA"/>
</svg>
