<svg width="24" height="24" viewBox="0 0 24 24" fill="none" xmlns="http://www.w3.org/2000/svg">
<path fill-rule="evenodd" clip-rule="evenodd" d="M12 0C5.4 0 0 5.41945 0 12.0432C0 17.3623 3.4 21.8785 8.2 23.4843C8.8 23.5846 9 23.1832 9 22.8821C9 22.581 9 21.8785 9 20.8749C5.7 21.5774 5 19.2692 5 19.2692C4.5 17.8641 3.7 17.4627 3.7 17.4627C2.6 16.7601 3.8 16.7602 3.8 16.7602C5 16.8605 5.6 17.9645 5.6 17.9645C6.7 19.771 8.4 19.2692 9.1 18.9681C9.2 18.1652 9.5 17.6634 9.9 17.3623C7.1 17.0612 4.3 16.0576 4.3 11.4411C4.3 10.1364 4.8 9.03242 5.5 8.22953C5.5 7.82809 5 6.62377 5.7 5.01801C5.7 5.01801 6.7 4.71693 9 6.22233C10 5.92125 11 5.82089 12 5.82089C13 5.82089 14 5.92125 15 6.22233C17.3 4.71693 18.3 5.01801 18.3 5.01801C19 6.72413 18.5 7.92845 18.4 8.22953C19.2 9.03242 19.6 10.1364 19.6 11.4411C19.6 16.0576 16.8 17.0612 14.1 17.3623C14.5 17.7638 14.9 18.4663 14.9 19.5702C14.9 21.176 14.9 22.4807 14.9 22.8821C14.9 23.1832 15.1 23.5846 15.7 23.4843C20.6 21.8785 24 17.3623 24 12.0432C24 5.41945 18.6 0 12 0Z" fill="#191717"/>
</svg>
