<svg width="96" height="96" viewBox="0 0 96 96" fill="none" xmlns="http://www.w3.org/2000/svg">
<g clip-path="url(#clip0_63_206)">
<mask id="mask0_63_206" style="mask-type:alpha" maskUnits="userSpaceOnUse" x="0" y="0" width="96" height="96">
<path d="M48 96C74.5097 96 96 74.5097 96 48C96 21.4903 74.5097 0 48 0C21.4903 0 0 21.4903 0 48C0 74.5097 21.4903 96 48 96Z" fill="black"/>
</mask>
<g mask="url(#mask0_63_206)">
<path d="M48 96C74.5097 96 96 74.5097 96 48C96 21.4903 74.5097 0 48 0C21.4903 0 0 21.4903 0 48C0 74.5097 21.4903 96 48 96Z" fill="black"/>
<path d="M79.7376 84.0107L36.8758 28.8H28.8V67.184H35.2606V37.0046L74.6662 87.9173C76.4443 86.7275 78.1382 85.4213 79.7376 84.0107Z" fill="url(#paint0_linear_63_206)"/>
<path d="M67.7334 28.8H61.3334V67.2H67.7334V28.8Z" fill="url(#paint1_linear_63_206)"/>
</g>
</g>
<defs>
<linearGradient id="paint0_linear_63_206" x1="58.1334" y1="62.1333" x2="77.0667" y2="85.6" gradientUnits="userSpaceOnUse">
<stop stop-color="white"/>
<stop offset="1" stop-color="white" stop-opacity="0"/>
</linearGradient>
<linearGradient id="paint1_linear_63_206" x1="64.5334" y1="28.8" x2="64.4262" y2="57" gradientUnits="userSpaceOnUse">
<stop stop-color="white"/>
<stop offset="1" stop-color="white" stop-opacity="0"/>
</linearGradient>
<clipPath id="clip0_63_206">
<rect width="96" height="96" fill="white"/>
</clipPath>
</defs>
</svg>
