<svg width="24" height="27" viewBox="0 0 24 27" fill="none" xmlns="http://www.w3.org/2000/svg">
<path d="M19.6666 26C21.6917 26 23.3333 24.3584 23.3333 22.3334C23.3333 20.3083 21.6917 18.6667 19.6666 18.6667C17.6416 18.6667 16 20.3083 16 22.3334C16 24.3584 17.6416 26 19.6666 26Z" fill="#FF5416"/>
<path d="M18.6634 7.99592C18.6642 9.31464 18.2738 10.6039 17.5418 11.7008C16.8097 12.7977 15.7688 13.6528 14.5507 14.158C13.3326 14.6632 11.992 14.7958 10.6985 14.539C9.40505 14.2823 8.2169 13.6477 7.28415 12.7155C6.3514 11.7833 5.71598 10.5954 5.45842 9.30208C5.20086 8.00876 5.33274 6.66809 5.8372 5.44968C6.34166 4.23126 7.19609 3.18986 8.2925 2.45714C9.38891 1.72441 10.6779 1.33331 11.9966 1.33331C13.764 1.33331 15.4592 2.03514 16.7093 3.2845C17.9594 4.53387 18.6623 6.22851 18.6634 7.99592V7.99592Z" stroke="#03020D" stroke-miterlimit="10" stroke-linecap="round"/>
<path d="M16 18H7.59073C5.75435 18 3.9931 18.7761 2.69459 20.1576C1.39607 21.5391 0.666626 23.4129 0.666626 25.3666V26" stroke="#03020D" stroke-miterlimit="10" stroke-linecap="round"/>
</svg>
