<svg width="32" height="26" viewBox="0 0 32 26" fill="none" xmlns="http://www.w3.org/2000/svg">
<path d="M25.3333 19.5H30.6666" stroke="#FF5416" stroke-miterlimit="10" stroke-linecap="round"/>
<path d="M6.66669 6.16666L1.33335 6.16666" stroke="#FF5416" stroke-miterlimit="10" stroke-linecap="round"/>
<path d="M6.89591 17.5C7.31117 15.6342 8.24629 14.3333 9.33333 14.3333C10.8061 14.3333 12 16.7212 12 19.6667C12 22.6122 10.8061 25 9.33333 25C8.18266 25 7.2022 23.5424 6.8284 21.5" stroke="#03020D" stroke-linecap="round"/>
<path d="M9.33331 14.3333H22.6666C24.1394 14.3333 25.3333 16.7212 25.3333 19.6667C25.3333 22.6122 24.1394 25 22.6666 25H9.33331" stroke="#03020D"/>
<path d="M0.97976 19.8536C0.784497 19.6583 0.784497 19.3417 0.97976 19.1464L4.16174 15.9645C4.357 15.7692 4.67359 15.7692 4.86885 15.9645C5.06411 16.1597 5.06411 16.4763 4.86885 16.6716L2.04042 19.5L4.86885 22.3284C5.06411 22.5237 5.06411 22.8403 4.86885 23.0355C4.67358 23.2308 4.357 23.2308 4.16174 23.0355L0.97976 19.8536ZM9.33331 19C9.60946 19 9.83331 19.2239 9.83331 19.5C9.83331 19.7761 9.60946 20 9.33331 20L9.33331 19ZM1.33331 19L9.33331 19L9.33331 20L1.33331 20L1.33331 19Z" fill="#FF5416"/>
<path d="M25.1041 4.16667C24.6888 2.30086 23.7537 1 22.6667 1C21.1939 1 20 3.38781 20 6.33333C20 9.27885 21.1939 11.6667 22.6667 11.6667C23.8173 11.6667 24.7978 10.209 25.1716 8.16667" stroke="#03020D" stroke-linecap="round"/>
<path d="M22.6667 1H9.33335C7.86059 1 6.66669 3.38781 6.66669 6.33333C6.66669 9.27885 7.86059 11.6667 9.33335 11.6667H22.6667" stroke="#03020D"/>
<path d="M31.0202 6.52021C31.2155 6.32495 31.2155 6.00837 31.0202 5.8131L27.8383 2.63112C27.643 2.43586 27.3264 2.43586 27.1312 2.63112C26.9359 2.82639 26.9359 3.14297 27.1312 3.33823L29.9596 6.16666L27.1312 8.99508C26.9359 9.19035 26.9359 9.50693 27.1312 9.70219C27.3264 9.89745 27.643 9.89745 27.8383 9.70219L31.0202 6.52021ZM22.6667 5.66666C22.3905 5.66666 22.1667 5.89051 22.1667 6.16666C22.1667 6.4428 22.3905 6.66666 22.6667 6.66666L22.6667 5.66666ZM30.6667 5.66666L22.6667 5.66666L22.6667 6.66666L30.6667 6.66666L30.6667 5.66666Z" fill="#FF5416"/>
</svg>
