<svg width="24" height="20" viewBox="0 0 24 20" fill="none" xmlns="http://www.w3.org/2000/svg">
<path d="M24 2.39556C23.1129 2.79999 22.1658 3.06961 21.1708 3.19216C22.1898 2.56714 22.969 1.58671 23.3287 0.410201C22.3816 0.986201 21.3267 1.40288 20.1998 1.63573C19.3007 0.655307 18.03 0.0425415 16.6034 0.0425415C13.8821 0.0425415 11.6883 2.29752 11.6883 5.06722C11.6883 5.45939 11.7363 5.83931 11.8202 6.21922C7.73227 6.01088 4.11189 4.01326 1.67832 0.96169C1.25874 1.70926 1.00699 2.56714 1.00699 3.48629C1.00699 5.22654 1.87013 6.77071 3.2008 7.67761C2.3976 7.65309 1.63037 7.42024 0.971029 7.05258C0.971029 7.0771 0.971029 7.08935 0.971029 7.11386C0.971029 9.55267 2.66134 11.5871 4.91509 12.0405C4.50749 12.1508 4.06394 12.2121 3.62038 12.2121C3.30869 12.2121 2.997 12.1753 2.6973 12.1263C3.32068 14.1239 5.14286 15.5823 7.28871 15.6191C5.61039 16.9671 3.48851 17.776 1.17483 17.776C0.779221 17.776 0.383616 17.7515 0 17.7025C2.18182 19.1241 4.75924 19.9574 7.54046 19.9574C16.5914 19.9574 21.5305 12.2979 21.5305 5.65548C21.5305 5.43488 21.5305 5.22654 21.5185 5.00595C22.5015 4.29514 23.3407 3.41275 24 2.39556Z" fill="#03020D"/>
</svg>
